<mxfile host="app.diagrams.net" modified="2023-07-12T15:37:10.024Z" agent="Mozilla/5.0 (Macintosh; Intel Mac OS X 10_15_7) AppleWebKit/537.36 (KHTML, like Gecko) Chrome/101.0.0.0 Safari/537.36" version="21.6.2" etag="_tUgFlx26PLXvPAoiWc0" type="github">
  <diagram name="第 1 页" id="C3SbN7DcEmQDSDct9JTR">
    <mxGraphModel>
      <root>
        <mxCell id="0" />
        <mxCell id="1" parent="0" />
      </root>
    </mxGraphModel>
  </diagram>
</mxfile>
